<svg width="48" height="48" viewBox="0 0 48 48" fill="none" xmlns="http://www.w3.org/2000/svg">
<g id="material-symbols-light:computer-outline">
<path id="Vector" d="M4.54009 38.9241C4.25475 38.9241 4.01609 38.8281 3.82409 38.6361C3.63342 38.4454 3.53809 38.2081 3.53809 37.9241C3.53809 37.6387 3.63342 37.4007 3.82409 37.2101C4.01609 37.0194 4.25409 36.9241 4.53809 36.9241H43.4621C43.7461 36.9241 43.9834 37.0194 44.1741 37.2101C44.3661 37.4007 44.4621 37.6387 44.4621 37.9241C44.4621 38.2081 44.3661 38.4454 44.1741 38.6361C43.9821 38.8267 43.7448 38.9227 43.4621 38.9241H4.54009ZM9.23009 34.9241C8.31009 34.9241 7.54142 34.6154 6.92409 33.9981C6.30809 33.3821 6.00009 32.6134 6.00009 31.6921V12.1521C6.00009 11.2321 6.30875 10.4641 6.92609 9.84807C7.54342 9.23207 8.31142 8.92407 9.23009 8.92407H38.7701C39.6901 8.92407 40.4581 9.23207 41.0741 9.84807C41.6914 10.4654 42.0001 11.2341 42.0001 12.1541V31.6941C42.0001 32.6141 41.6914 33.3821 41.0741 33.9981C40.4568 34.6141 39.6888 34.9227 38.7701 34.9241H9.23009ZM9.23009 32.9241H38.7701C39.0768 32.9241 39.3588 32.7954 39.6161 32.5381C39.8721 32.2821 40.0001 32.0001 40.0001 31.6921V12.1521C40.0001 11.8454 39.8721 11.5641 39.6161 11.3081C39.3588 11.0521 39.0768 10.9241 38.7701 10.9241H9.23009C8.92342 10.9241 8.64142 11.0521 8.38409 11.3081C8.12809 11.5641 8.00009 11.8461 8.00009 12.1541V31.6941C8.00009 32.0007 8.12809 32.2821 8.38409 32.5381C8.64142 32.7954 8.92342 32.9241 9.23009 32.9241Z" fill="white"/>
</g>
</svg>
