<svg width="48" height="48" viewBox="0 0 48 48" fill="none" xmlns="http://www.w3.org/2000/svg">
<g id="tdesign:system-sum">
<path id="Vector" d="M27.054 11.3859C28.7436 12.7652 30.3617 14.2298 31.902 15.7739C33.4454 17.3144 34.9093 18.9325 36.288 20.6219C37.3418 19.0338 38.2642 17.3622 39.046 15.6239C39.954 13.5579 40.408 11.7959 40.466 10.4279C40.524 9.06394 40.186 8.30994 39.774 7.89994C39.364 7.48794 38.61 7.15194 37.246 7.20994C35.88 7.26594 34.118 7.71994 32.05 8.62994C30.3128 9.4119 28.642 10.3336 27.054 11.3859ZM23.678 8.83994C26.004 7.21994 28.29 5.91394 30.438 4.96794C32.774 3.94194 35.042 3.29794 37.078 3.21194C39.118 3.12794 41.134 3.60194 42.604 5.07194C44.074 6.54194 44.548 8.55794 44.464 10.5959C44.376 12.6319 43.734 14.9019 42.706 17.2359C41.762 19.3839 40.454 21.6699 38.836 23.9959C40.456 26.3239 41.762 28.6099 42.708 30.7599C43.734 33.0939 44.378 35.3639 44.464 37.3999C44.548 39.4359 44.074 41.4539 42.604 42.9239C41.134 44.3939 39.118 44.8679 37.08 44.7839C35.044 44.6979 32.774 44.0539 30.44 43.0259C28.292 42.0819 26.004 40.7739 23.678 39.1539C21.352 40.7739 19.064 42.0819 16.916 43.0259C14.582 44.0539 12.312 44.6959 10.276 44.7819C8.23801 44.8679 6.22001 44.3939 4.75201 42.9219C3.28201 41.4539 2.80601 39.4359 2.89201 37.3979C2.97801 35.3639 3.62201 33.0939 4.64801 30.7579C5.59401 28.6099 6.90201 26.3239 8.52001 23.9979C6.90201 21.6699 5.59401 19.3839 4.65001 17.2359C3.62201 14.9019 2.98001 12.6319 2.89401 10.5959C2.80801 8.55794 3.28201 6.54194 4.75401 5.07194C6.22201 3.60194 8.24001 3.12794 10.278 3.21194C12.312 3.29794 14.582 3.94194 16.918 4.96794C19.064 5.91394 21.352 7.22194 23.678 8.83994ZM11.068 20.6199C12.4462 18.9313 13.9094 17.3138 15.452 15.7739C16.9931 14.2299 18.6119 12.7653 20.302 11.3859C18.7144 10.333 17.0435 9.41124 15.306 8.62994C13.238 7.71994 11.476 7.26594 10.11 7.20994C8.74601 7.15194 7.99001 7.48994 7.58001 7.89994C7.17001 8.30994 6.83201 9.06394 6.89001 10.4279C6.94801 11.7959 7.40201 13.5579 8.31001 15.6239C9.09188 17.3622 10.0143 19.0317 11.068 20.6199ZM13.492 23.9959C14.9779 25.8906 16.5776 27.6932 18.282 29.3939C19.9822 31.0983 21.7841 32.6979 23.678 34.1839C25.572 32.698 27.3739 31.0983 29.074 29.3939C30.7785 27.6932 32.3781 25.8906 33.864 23.9959C32.378 22.1027 30.7784 20.3013 29.074 18.6019C27.374 16.8968 25.5721 15.2965 23.678 13.8099C21.7833 15.2965 19.9807 16.8968 18.28 18.6019C16.5757 20.3014 14.9781 22.1027 13.492 23.9959ZM11.068 27.3719C10.0135 28.9607 9.09038 30.6329 8.30801 32.3719C7.40001 34.4379 6.94801 36.1999 6.88801 37.5659C6.83201 38.9299 7.16801 39.6859 7.58001 40.0959C7.99001 40.5059 8.74401 40.8439 10.108 40.7859C11.474 40.7279 13.238 40.2739 15.304 39.3659C17.043 38.5835 18.7152 37.6604 20.304 36.6059C18.6139 35.2279 16.9952 33.7647 15.454 32.2219C13.9106 30.6808 12.4467 29.062 11.068 27.3719ZM27.054 36.6079C28.6422 37.6617 30.3138 38.5841 32.052 39.3659C34.118 40.2739 35.882 40.7279 37.248 40.7859C38.612 40.8439 39.366 40.5059 39.776 40.0959C40.186 39.6839 40.524 38.9299 40.466 37.5659C40.41 36.1999 39.956 34.4379 39.046 32.3699C38.2642 30.6317 37.3418 28.9601 36.288 27.3719C34.9093 29.062 33.4454 30.6808 31.902 32.2219C30.3609 33.7654 28.7421 35.2293 27.052 36.6079H27.054ZM22 21.9999H26.008V26.0079H22V21.9999Z" fill="white"/>
</g>
</svg>
