<svg width="48" height="48" viewBox="0 0 48 48" fill="none" xmlns="http://www.w3.org/2000/svg">
<g id="carbon:bot">
<path id="Vector" d="M27 15H30V18H27V15ZM18 15H21V18H18V15Z" fill="white"/>
<path id="Vector_2" d="M39 30H31.5V27H33C33.7954 26.9992 34.558 26.6829 35.1204 26.1204C35.6829 25.558 35.9992 24.7954 36 24V18H39V15H36V12C35.9992 11.2046 35.6829 10.442 35.1204 9.87956C34.558 9.31712 33.7954 9.00079 33 9H30V3H27V9H21V3H18V9H15C14.2046 9.00079 13.442 9.31712 12.8796 9.87956C12.3171 10.442 12.0008 11.2046 12 12V15H9V18H12V24C12.0008 24.7954 12.3171 25.558 12.8796 26.1204C13.442 26.6829 14.2046 26.9992 15 27H16.5V30H9C8.20459 30.0008 7.44199 30.3171 6.87956 30.8796C6.31712 31.442 6.00079 32.2046 6 33V45H9V33H39V45H42V33C41.9992 32.2046 41.6829 31.442 41.1204 30.8796C40.558 30.3171 39.7954 30.0008 39 30ZM15 12H33V24H15V12ZM19.5 27H28.5V30H19.5V27Z" fill="white"/>
</g>
</svg>
