<svg width="48" height="48" viewBox="0 0 48 48" fill="none" xmlns="http://www.w3.org/2000/svg">
<g id="heroicons:shopping-bag">
<path id="Vector" d="M31.5 21V12C31.5 10.0109 30.7098 8.10322 29.3033 6.6967C27.8967 5.29018 25.9891 4.5 24 4.5C22.0108 4.5 20.1032 5.29018 18.6967 6.6967C17.2901 8.10322 16.5 10.0109 16.5 12V21M39.212 17.014L41.738 41.014C41.878 42.344 40.838 43.5 39.5 43.5H8.49997C8.18439 43.5003 7.87226 43.4343 7.58387 43.3061C7.29547 43.178 7.03727 42.9906 6.82602 42.7561C6.61477 42.5217 6.4552 42.2454 6.35768 41.9453C6.26016 41.6451 6.22687 41.3278 6.25997 41.014L8.78797 17.014C8.84628 16.4611 9.10722 15.9494 9.52047 15.5775C9.93372 15.2056 10.47 14.9999 11.026 15H36.974C38.126 15 39.092 15.87 39.212 17.014ZM17.25 21C17.25 21.1989 17.171 21.3897 17.0303 21.5303C16.8896 21.671 16.6989 21.75 16.5 21.75C16.3011 21.75 16.1103 21.671 15.9696 21.5303C15.829 21.3897 15.75 21.1989 15.75 21C15.75 20.8011 15.829 20.6103 15.9696 20.4697C16.1103 20.329 16.3011 20.25 16.5 20.25C16.6989 20.25 16.8896 20.329 17.0303 20.4697C17.171 20.6103 17.25 20.8011 17.25 21ZM32.25 21C32.25 21.1989 32.171 21.3897 32.0303 21.5303C31.8896 21.671 31.6989 21.75 31.5 21.75C31.3011 21.75 31.1103 21.671 30.9696 21.5303C30.829 21.3897 30.75 21.1989 30.75 21C30.75 20.8011 30.829 20.6103 30.9696 20.4697C31.1103 20.329 31.3011 20.25 31.5 20.25C31.6989 20.25 31.8896 20.329 32.0303 20.4697C32.171 20.6103 32.25 20.8011 32.25 21Z" stroke="white" stroke-width="3" stroke-linecap="round" stroke-linejoin="round"/>
</g>
</svg>
