<svg width="48" height="48" viewBox="0 0 48 48" fill="none" xmlns="http://www.w3.org/2000/svg">
<g id="fluent:design-ideas-24-regular">
<path id="Vector" d="M11.15 4.14791C11.4046 4.27034 11.6195 4.4622 11.7699 4.70139C11.9203 4.94058 12 5.21738 12 5.49991C12 7.15991 12.624 8.11591 13.406 9.27991L13.464 9.36391C14.128 10.3519 15 11.6459 15 13.4999C15 15.3919 14.046 17.0599 12.592 18.0499C12.974 18.3699 13.312 18.7639 13.604 19.2359C14.556 20.7759 15 23.1299 15 26.5099C15 29.9339 14.54 34.0459 13.79 37.3299C13.418 38.9619 12.956 40.4679 12.406 41.5979C12.1463 42.1602 11.8024 42.6795 11.386 43.1379C10.974 43.5599 10.34 44.0099 9.5 44.0099C8.66 44.0099 8.026 43.5599 7.616 43.1379C7.19842 42.6804 6.85433 42.1609 6.596 41.5979C6.044 40.4659 5.582 38.9619 5.21 37.3279C4.42989 33.7734 4.02435 30.1469 4 26.5079C4 23.1279 4.444 20.7759 5.396 19.2359C5.6676 18.7889 6.00929 18.3885 6.408 18.0499C5.66555 17.5458 5.05788 16.8676 4.63811 16.0744C4.21834 15.2812 3.99925 14.3973 4 13.4999C4 12.7639 4 11.4979 4.766 9.86391C5.516 8.26391 6.942 6.42591 9.562 4.32791C9.78282 4.15128 10.0491 4.04066 10.33 4.00881C10.611 3.97696 10.8953 4.02518 11.15 4.14791ZM7 13.4979C7 14.161 7.26339 14.7988 7.73223 15.2677C8.20108 15.7365 8.83696 15.9999 9.5 15.9999C10.163 15.9999 10.7989 15.7365 11.2678 15.2677C11.7366 14.7988 12 14.163 12 13.4999C12 12.6219 11.63 12.0139 10.916 10.9519L10.892 10.9159C10.434 10.2359 9.892 9.42991 9.508 8.39591C8.422 9.49991 7.822 10.4159 7.484 11.1359C7 12.1679 7 12.9039 7 13.4979ZM7.948 20.8119C7.452 21.6159 7 23.2639 7 26.5099C7 29.7119 7.436 33.5999 8.134 36.6619C8.486 38.2019 8.886 39.4519 9.292 40.2839C9.366 40.4379 9.436 40.5659 9.5 40.6739C9.564 40.5659 9.634 40.4379 9.708 40.2839C10.114 39.4519 10.514 38.1999 10.866 36.6619C11.566 33.6019 12 29.7139 12 26.5099C12 23.2639 11.548 21.6159 11.052 20.8119C10.9024 20.5412 10.6763 20.3207 10.402 20.1779C10.118 20.0542 9.80952 19.9968 9.5 20.0099C9.1 20.0099 8.814 20.0719 8.598 20.1779C8.32369 20.3207 8.09759 20.5412 7.948 20.8119ZM20 29.8359C18.9404 29.6582 17.9097 29.3379 16.936 28.8839C16.9945 27.7496 17.0112 26.6135 16.986 25.4779C17.888 26.0839 18.906 26.5299 20 26.7779V20.9999C20 20.2043 20.3161 19.4412 20.8787 18.8786C21.4413 18.316 22.2043 17.9999 23 17.9999H31C30.9999 16.3213 30.5304 14.6762 29.6444 13.2504C28.7585 11.8246 27.4915 10.675 25.9865 9.93147C24.4815 9.18793 22.7986 8.8801 21.1279 9.04276C19.4572 9.20541 17.8653 9.83206 16.532 10.8519C16.132 9.74591 15.562 8.89991 15.166 8.31191L15.086 8.19191C16.8829 6.9252 18.9933 6.17648 21.1867 6.02749C23.3802 5.87849 25.5724 6.33494 27.5241 7.34701C29.4758 8.35909 31.112 9.88788 32.254 11.7665C33.396 13.6451 34 15.8014 34 17.9999H41C41.7957 17.9999 42.5587 18.316 43.1213 18.8786C43.6839 19.4412 44 20.2043 44 20.9999V38.9999C44 39.7956 43.6839 40.5586 43.1213 41.1212C42.5587 41.6838 41.7957 41.9999 41 41.9999H23C22.2043 41.9999 21.4413 41.6838 20.8787 41.1212C20.3161 40.5586 20 39.7956 20 38.9999V29.8339V29.8359ZM23 29.9619V39.0019H41V21.0019H33.62C32.9969 23.412 31.6402 25.5688 29.7376 27.174C27.835 28.7792 25.4805 29.7534 23 29.9619ZM30.488 21.0019H23V26.9479C24.6804 26.7595 26.2738 26.1019 27.598 25.0504C28.9222 23.9989 29.9237 22.5959 30.488 21.0019Z" fill="white"/>
</g>
</svg>
