<svg width="24" height="18" viewBox="0 0 24 18" fill="none" xmlns="http://www.w3.org/2000/svg">
<g id="Uzbekistan (UZ)">
<g clip-path="url(#clip0_68_1172)">
<path id="Vector" d="M0 12H24V18H0V12Z" fill="#1EB53A"/>
<path id="Vector_2" d="M0 0H24V6H0V0Z" fill="#0099B5"/>
<path id="Vector_3" d="M0 5.76001H24V12.24H0V5.76001Z" fill="#CE1126"/>
<path id="Vector_4" d="M0 6.12012H24V11.8801H0V6.12012Z" fill="white"/>
<path id="Vector_5" d="M5.03988 5.03997C6.23282 5.03997 7.19988 4.07291 7.19988 2.87997C7.19988 1.68704 6.23282 0.719971 5.03988 0.719971C3.84695 0.719971 2.87988 1.68704 2.87988 2.87997C2.87988 4.07291 3.84695 5.03997 5.03988 5.03997Z" fill="white"/>
<path id="Vector_6" d="M5.7601 5.03997C6.95303 5.03997 7.9201 4.07291 7.9201 2.87997C7.9201 1.68704 6.95303 0.719971 5.7601 0.719971C4.56716 0.719971 3.6001 1.68704 3.6001 2.87997C3.6001 4.07291 4.56716 5.03997 5.7601 5.03997Z" fill="#0099B5"/>
<g id="Group">
<g id="e">
<g id="d">
<g id="c">
<g id="b">
<path id="a" d="M9.79159 4.17676L9.65479 4.58716L9.86359 4.65916" fill="white"/>
<path id="a_2" d="M9.79142 4.17676L9.92822 4.58716L9.71942 4.65916" fill="white"/>
</g>
<g id="b_2">
<path id="a_3" d="M10.2024 4.47532L9.76984 4.47204L9.76589 4.69287" fill="white"/>
<path id="a_4" d="M10.2024 4.47536L9.85432 4.73229L9.72132 4.55596" fill="white"/>
</g>
</g>
<g id="b_3">
<path id="a_5" d="M9.38065 4.47536L9.72869 4.73229L9.86169 4.55596" fill="white"/>
<path id="a_6" d="M9.38058 4.47532L9.81317 4.47204L9.81712 4.69287" fill="white"/>
</g>
<g id="c_2">
<g id="b_4">
<path id="a_7" d="M10.0456 4.95834L9.91502 4.54591L9.70378 4.61039" fill="white"/>
<path id="a_8" d="M10.0457 4.95841L9.69383 4.7068L9.82043 4.52582" fill="white"/>
</g>
<g id="b_5">
<path id="a_9" d="M9.53776 4.95841L9.88966 4.7068L9.76306 4.52582" fill="white"/>
<path id="a_10" d="M9.53792 4.95834L9.66847 4.54591L9.87972 4.61039" fill="white"/>
</g>
</g>
</g>
<g id="d_2">
<g id="c_3">
<g id="b_6">
<path id="a_11" d="M9.79159 2.44873L9.65479 2.85913L9.86359 2.93113" fill="white"/>
<path id="a_12" d="M9.79142 2.44873L9.92822 2.85913L9.71942 2.93113" fill="white"/>
</g>
<g id="b_7">
<path id="a_13" d="M10.2024 2.74729L9.76984 2.74401L9.76589 2.96484" fill="white"/>
<path id="a_14" d="M10.2024 2.74734L9.85432 3.00426L9.72132 2.82793" fill="white"/>
</g>
</g>
<g id="b_8">
<path id="a_15" d="M9.38065 2.74734L9.72869 3.00426L9.86169 2.82793" fill="white"/>
<path id="a_16" d="M9.38058 2.74729L9.81317 2.74401L9.81712 2.96484" fill="white"/>
</g>
<g id="c_4">
<g id="b_9">
<path id="a_17" d="M10.0456 3.23031L9.91502 2.81788L9.70378 2.88236" fill="white"/>
<path id="a_18" d="M10.0457 3.23038L9.69383 2.97877L9.82043 2.79779" fill="white"/>
</g>
<g id="b_10">
<path id="a_19" d="M9.53776 3.23038L9.88966 2.97877L9.76306 2.79779" fill="white"/>
<path id="a_20" d="M9.53792 3.23031L9.66847 2.81788L9.87972 2.88236" fill="white"/>
</g>
</g>
</g>
<g id="d_3">
<g id="c_5">
<g id="b_11">
<path id="a_21" d="M9.79159 0.720703L9.65479 1.1311L9.86359 1.2031" fill="white"/>
<path id="a_22" d="M9.79142 0.720703L9.92822 1.1311L9.71942 1.2031" fill="white"/>
</g>
<g id="b_12">
<path id="a_23" d="M10.2024 1.01926L9.76984 1.01598L9.76589 1.23681" fill="white"/>
<path id="a_24" d="M10.2024 1.01931L9.85432 1.27623L9.72132 1.0999" fill="white"/>
</g>
</g>
<g id="b_13">
<path id="a_25" d="M9.38065 1.01931L9.72869 1.27623L9.86169 1.0999" fill="white"/>
<path id="a_26" d="M9.38058 1.01926L9.81317 1.01598L9.81712 1.23681" fill="white"/>
</g>
<g id="c_6">
<g id="b_14">
<path id="a_27" d="M10.0456 1.50228L9.91502 1.08985L9.70378 1.15433" fill="white"/>
<path id="a_28" d="M10.0457 1.50235L9.69383 1.25074L9.82043 1.06976" fill="white"/>
</g>
<g id="b_15">
<path id="a_29" d="M9.53776 1.50235L9.88966 1.25074L9.76306 1.06976" fill="white"/>
<path id="a_30" d="M9.53792 1.50228L9.66847 1.08985L9.87972 1.15433" fill="white"/>
</g>
</g>
</g>
</g>
<g id="e_2">
<g id="d_4">
<g id="c_7">
<g id="b_16">
<path id="a_31" d="M11.5196 4.17676L11.3828 4.58716L11.5916 4.65916" fill="white"/>
<path id="a_32" d="M11.5194 4.17676L11.6562 4.58716L11.4474 4.65916" fill="white"/>
</g>
<g id="b_17">
<path id="a_33" d="M11.9305 4.47532L11.4979 4.47204L11.4939 4.69287" fill="white"/>
<path id="a_34" d="M11.9304 4.47536L11.5823 4.73229L11.4493 4.55596" fill="white"/>
</g>
</g>
<g id="b_18">
<path id="a_35" d="M11.1087 4.47536L11.4567 4.73229L11.5897 4.55596" fill="white"/>
<path id="a_36" d="M11.1086 4.47532L11.5412 4.47204L11.5451 4.69287" fill="white"/>
</g>
<g id="c_8">
<g id="b_19">
<path id="a_37" d="M11.7736 4.95834L11.6431 4.54591L11.4318 4.61039" fill="white"/>
<path id="a_38" d="M11.7738 4.95841L11.4219 4.7068L11.5485 4.52582" fill="white"/>
</g>
<g id="b_20">
<path id="a_39" d="M11.2658 4.95841L11.6177 4.7068L11.4911 4.52582" fill="white"/>
<path id="a_40" d="M11.2659 4.95834L11.3965 4.54591L11.6077 4.61039" fill="white"/>
</g>
</g>
</g>
<g id="d_5">
<g id="c_9">
<g id="b_21">
<path id="a_41" d="M11.5196 2.44873L11.3828 2.85913L11.5916 2.93113" fill="white"/>
<path id="a_42" d="M11.5194 2.44873L11.6562 2.85913L11.4474 2.93113" fill="white"/>
</g>
<g id="b_22">
<path id="a_43" d="M11.9305 2.74729L11.4979 2.74401L11.4939 2.96484" fill="white"/>
<path id="a_44" d="M11.9304 2.74734L11.5823 3.00426L11.4493 2.82793" fill="white"/>
</g>
</g>
<g id="b_23">
<path id="a_45" d="M11.1087 2.74734L11.4567 3.00426L11.5897 2.82793" fill="white"/>
<path id="a_46" d="M11.1086 2.74729L11.5412 2.74401L11.5451 2.96484" fill="white"/>
</g>
<g id="c_10">
<g id="b_24">
<path id="a_47" d="M11.7736 3.23031L11.6431 2.81788L11.4318 2.88236" fill="white"/>
<path id="a_48" d="M11.7738 3.23038L11.4219 2.97877L11.5485 2.79779" fill="white"/>
</g>
<g id="b_25">
<path id="a_49" d="M11.2658 3.23038L11.6177 2.97877L11.4911 2.79779" fill="white"/>
<path id="a_50" d="M11.2659 3.23031L11.3965 2.81788L11.6077 2.88236" fill="white"/>
</g>
</g>
</g>
<g id="d_6">
<g id="c_11">
<g id="b_26">
<path id="a_51" d="M11.5196 0.720703L11.3828 1.1311L11.5916 1.2031" fill="white"/>
<path id="a_52" d="M11.5194 0.720703L11.6562 1.1311L11.4474 1.2031" fill="white"/>
</g>
<g id="b_27">
<path id="a_53" d="M11.9305 1.01926L11.4979 1.01598L11.4939 1.23681" fill="white"/>
<path id="a_54" d="M11.9304 1.01931L11.5823 1.27623L11.4493 1.0999" fill="white"/>
</g>
</g>
<g id="b_28">
<path id="a_55" d="M11.1087 1.01931L11.4567 1.27623L11.5897 1.0999" fill="white"/>
<path id="a_56" d="M11.1086 1.01926L11.5412 1.01598L11.5451 1.23681" fill="white"/>
</g>
<g id="c_12">
<g id="b_29">
<path id="a_57" d="M11.7736 1.50228L11.6431 1.08985L11.4318 1.15433" fill="white"/>
<path id="a_58" d="M11.7738 1.50235L11.4219 1.25074L11.5485 1.06976" fill="white"/>
</g>
<g id="b_30">
<path id="a_59" d="M11.2658 1.50235L11.6177 1.25074L11.4911 1.06976" fill="white"/>
<path id="a_60" d="M11.2659 1.50228L11.3965 1.08985L11.6077 1.15433" fill="white"/>
</g>
</g>
</g>
</g>
<g id="e_3">
<g id="d_7">
<g id="c_13">
<g id="b_31">
<path id="a_61" d="M13.2476 4.17676L13.1108 4.58716L13.3196 4.65916" fill="white"/>
<path id="a_62" d="M13.2475 4.17676L13.3843 4.58716L13.1755 4.65916" fill="white"/>
</g>
<g id="b_32">
<path id="a_63" d="M13.6585 4.47532L13.2259 4.47204L13.2219 4.69287" fill="white"/>
<path id="a_64" d="M13.6584 4.47536L13.3104 4.73229L13.1774 4.55596" fill="white"/>
</g>
</g>
<g id="b_33">
<path id="a_65" d="M12.8367 4.47536L13.1847 4.73229L13.3177 4.55596" fill="white"/>
<path id="a_66" d="M12.8366 4.47532L13.2692 4.47204L13.2732 4.69287" fill="white"/>
</g>
<g id="c_14">
<g id="b_34">
<path id="a_67" d="M13.5016 4.95834L13.3711 4.54591L13.1598 4.61039" fill="white"/>
<path id="a_68" d="M13.5018 4.95841L13.1499 4.7068L13.2765 4.52582" fill="white"/>
</g>
<g id="b_35">
<path id="a_69" d="M12.9938 4.95841L13.3457 4.7068L13.2191 4.52582" fill="white"/>
<path id="a_70" d="M12.994 4.95834L13.1245 4.54591L13.3358 4.61039" fill="white"/>
</g>
</g>
</g>
<g id="d_8">
<g id="c_15">
<g id="b_36">
<path id="a_71" d="M13.2476 2.44873L13.1108 2.85913L13.3196 2.93113" fill="white"/>
<path id="a_72" d="M13.2475 2.44873L13.3843 2.85913L13.1755 2.93113" fill="white"/>
</g>
<g id="b_37">
<path id="a_73" d="M13.6585 2.74729L13.2259 2.74401L13.2219 2.96484" fill="white"/>
<path id="a_74" d="M13.6584 2.74734L13.3104 3.00426L13.1774 2.82793" fill="white"/>
</g>
</g>
<g id="b_38">
<path id="a_75" d="M12.8367 2.74734L13.1847 3.00426L13.3177 2.82793" fill="white"/>
<path id="a_76" d="M12.8366 2.74729L13.2692 2.74401L13.2732 2.96484" fill="white"/>
</g>
<g id="c_16">
<g id="b_39">
<path id="a_77" d="M13.5016 3.23031L13.3711 2.81788L13.1598 2.88236" fill="white"/>
<path id="a_78" d="M13.5018 3.23038L13.1499 2.97877L13.2765 2.79779" fill="white"/>
</g>
<g id="b_40">
<path id="a_79" d="M12.9938 3.23038L13.3457 2.97877L13.2191 2.79779" fill="white"/>
<path id="a_80" d="M12.994 3.23031L13.1245 2.81788L13.3358 2.88236" fill="white"/>
</g>
</g>
</g>
<g id="d_9">
<g id="c_17">
<g id="b_41">
<path id="a_81" d="M13.2476 0.720703L13.1108 1.1311L13.3196 1.2031" fill="white"/>
<path id="a_82" d="M13.2475 0.720703L13.3843 1.1311L13.1755 1.2031" fill="white"/>
</g>
<g id="b_42">
<path id="a_83" d="M13.6585 1.01926L13.2259 1.01598L13.2219 1.23681" fill="white"/>
<path id="a_84" d="M13.6584 1.01931L13.3104 1.27623L13.1774 1.0999" fill="white"/>
</g>
</g>
<g id="b_43">
<path id="a_85" d="M12.8367 1.01931L13.1847 1.27623L13.3177 1.0999" fill="white"/>
<path id="a_86" d="M12.8366 1.01926L13.2692 1.01598L13.2732 1.23681" fill="white"/>
</g>
<g id="c_18">
<g id="b_44">
<path id="a_87" d="M13.5016 1.50228L13.3711 1.08985L13.1598 1.15433" fill="white"/>
<path id="a_88" d="M13.5018 1.50235L13.1499 1.25074L13.2765 1.06976" fill="white"/>
</g>
<g id="b_45">
<path id="a_89" d="M12.9938 1.50235L13.3457 1.25074L13.2191 1.06976" fill="white"/>
<path id="a_90" d="M12.994 1.50228L13.1245 1.08985L13.3358 1.15433" fill="white"/>
</g>
</g>
</g>
</g>
<g id="d_10">
<g id="c_19">
<g id="b_46">
<path id="a_91" d="M6.33553 4.17676L6.19873 4.58716L6.40753 4.65916" fill="white"/>
<path id="a_92" d="M6.33537 4.17676L6.47217 4.58716L6.26337 4.65916" fill="white"/>
</g>
<g id="b_47">
<path id="a_93" d="M6.74638 4.47532L6.31379 4.47204L6.30983 4.69287" fill="white"/>
<path id="a_94" d="M6.7463 4.47536L6.39826 4.73229L6.26526 4.55596" fill="white"/>
</g>
</g>
<g id="b_48">
<path id="a_95" d="M5.9246 4.47536L6.27264 4.73229L6.40564 4.55596" fill="white"/>
<path id="a_96" d="M5.92452 4.47532L6.35711 4.47204L6.36106 4.69287" fill="white"/>
</g>
<g id="c_20">
<g id="b_49">
<path id="a_97" d="M6.58952 4.95834L6.45897 4.54591L6.24772 4.61039" fill="white"/>
<path id="a_98" d="M6.58968 4.95841L6.23778 4.7068L6.36438 4.52582" fill="white"/>
</g>
<g id="b_50">
<path id="a_99" d="M6.08171 4.95841L6.43361 4.7068L6.30701 4.52582" fill="white"/>
<path id="a_100" d="M6.08186 4.95834L6.21242 4.54591L6.42366 4.61039" fill="white"/>
</g>
</g>
</g>
<g id="d_11">
<g id="c_21">
<g id="b_51">
<path id="a_101" d="M8.06356 4.17676L7.92676 4.58716L8.13556 4.65916" fill="white"/>
<path id="a_102" d="M8.0634 4.17676L8.2002 4.58716L7.9914 4.65916" fill="white"/>
</g>
<g id="b_52">
<path id="a_103" d="M8.4744 4.47532L8.04182 4.47204L8.03786 4.69287" fill="white"/>
<path id="a_104" d="M8.47433 4.47536L8.12629 4.73229L7.99329 4.55596" fill="white"/>
</g>
</g>
<g id="b_53">
<path id="a_105" d="M7.65263 4.47536L8.00067 4.73229L8.13366 4.55596" fill="white"/>
<path id="a_106" d="M7.65255 4.47532L8.08514 4.47204L8.08909 4.69287" fill="white"/>
</g>
<g id="c_22">
<g id="b_54">
<path id="a_107" d="M8.31755 4.95834L8.187 4.54591L7.97575 4.61039" fill="white"/>
<path id="a_108" d="M8.3177 4.95841L7.9658 4.7068L8.09241 4.52582" fill="white"/>
</g>
<g id="b_55">
<path id="a_109" d="M7.80974 4.95841L8.16164 4.7068L8.03504 4.52582" fill="white"/>
<path id="a_110" d="M7.80989 4.95834L7.94045 4.54591L8.15169 4.61039" fill="white"/>
</g>
</g>
</g>
<g id="d_12">
<g id="c_23">
<g id="b_56">
<path id="a_111" d="M8.06356 2.44873L7.92676 2.85913L8.13556 2.93113" fill="white"/>
<path id="a_112" d="M8.0634 2.44873L8.2002 2.85913L7.9914 2.93113" fill="white"/>
</g>
<g id="b_57">
<path id="a_113" d="M8.4744 2.74729L8.04182 2.74401L8.03786 2.96484" fill="white"/>
<path id="a_114" d="M8.47433 2.74734L8.12629 3.00426L7.99329 2.82793" fill="white"/>
</g>
</g>
<g id="b_58">
<path id="a_115" d="M7.65263 2.74734L8.00067 3.00426L8.13366 2.82793" fill="white"/>
<path id="a_116" d="M7.65255 2.74729L8.08514 2.74401L8.08909 2.96484" fill="white"/>
</g>
<g id="c_24">
<g id="b_59">
<path id="a_117" d="M8.31755 3.23031L8.187 2.81788L7.97575 2.88236" fill="white"/>
<path id="a_118" d="M8.3177 3.23038L7.9658 2.97877L8.09241 2.79779" fill="white"/>
</g>
<g id="b_60">
<path id="a_119" d="M7.80974 3.23038L8.16164 2.97877L8.03504 2.79779" fill="white"/>
<path id="a_120" d="M7.80989 3.23031L7.94045 2.81788L8.15169 2.88236" fill="white"/>
</g>
</g>
</g>
</g>
</g>
<rect x="0.1" y="0.1" width="23.8" height="17.8" stroke="#B6B6B6" stroke-width="0.2"/>
</g>
<defs>
<clipPath id="clip0_68_1172">
<rect width="24" height="18" fill="white"/>
</clipPath>
</defs>
</svg>
